<?xml version="1.0" encoding="UTF-8" standalone="no"?>
<!-- Created with Inkscape (http://www.inkscape.org/) -->

<svg
   xmlns:dc="http://purl.org/dc/elements/1.1/"
   xmlns:cc="http://creativecommons.org/ns#"
   xmlns:rdf="http://www.w3.org/1999/02/22-rdf-syntax-ns#"
   xmlns:svg="http://www.w3.org/2000/svg"
   xmlns="http://www.w3.org/2000/svg"
   xmlns:sodipodi="http://sodipodi.sourceforge.net/DTD/sodipodi-0.dtd"
   xmlns:inkscape="http://www.inkscape.org/namespaces/inkscape"
   version="1.1"
   id="svg2"
   width="800"
   height="800"
   viewBox="0 0 800 800"
   sodipodi:docname="cover.svg"
   inkscape:version="0.92.3 (2405546, 2018-03-11)">
  <metadata
     id="metadata8">
    <rdf:RDF>
      <cc:Work
         rdf:about="">
        <dc:format>image/svg+xml</dc:format>
        <dc:type
           rdf:resource="http://purl.org/dc/dcmitype/StillImage" />
        <dc:title></dc:title>
      </cc:Work>
    </rdf:RDF>
  </metadata>
  <defs
     id="defs6">
    <filter
       inkscape:collect="always"
       style="color-interpolation-filters:sRGB"
       id="filter879"
       x="-0.091393183"
       width="1.1827864"
       y="-0.044659608"
       height="1.0893192">
      <feGaussianBlur
         inkscape:collect="always"
         stdDeviation="5.5972915"
         id="feGaussianBlur881" />
    </filter>
    <filter
       inkscape:collect="always"
       style="color-interpolation-filters:sRGB"
       id="filter895"
       x="-0.018278631"
       width="1.0365573"
       y="-0.008931923"
       height="1.0178638">
      <feGaussianBlur
         inkscape:collect="always"
         stdDeviation="1.1194585"
         id="feGaussianBlur897" />
    </filter>
  </defs>
  <sodipodi:namedview
     pagecolor="#ffffff"
     bordercolor="#666666"
     borderopacity="1"
     objecttolerance="10"
     gridtolerance="10"
     guidetolerance="10"
     inkscape:pageopacity="0"
     inkscape:pageshadow="2"
     inkscape:window-width="1853"
     inkscape:window-height="1025"
     id="namedview4"
     showgrid="false"
     inkscape:snap-nodes="false"
     inkscape:zoom="0.834386"
     inkscape:cx="371.77166"
     inkscape:cy="347.79716"
     inkscape:window-x="1507"
     inkscape:window-y="27"
     inkscape:window-maximized="1"
     inkscape:current-layer="svg2" />
  <rect
     style="opacity:1;fill:#191919;fill-opacity:1;stroke:none;stroke-width:2;stroke-miterlimit:4;stroke-dasharray:none;stroke-dashoffset:0;stroke-opacity:1"
     id="rect899"
     width="890.47516"
     height="834.1463"
     x="-38.351551"
     y="875.50464" />
  <path
     sodipodi:nodetypes="czzzzzcczcc"
     inkscape:connector-curvature="0"
     id="path821"
     d="m 1317.5757,467.44754 c -3.0945,-23.34634 -9.6001,-61.8456 -11.2432,-90.37146 -1.6432,-28.52587 3.6932,-53.6874 11.1499,-79.25456 7.4567,-25.56716 5.3956,-57.06397 11.0995,-76.84974 5.7039,-19.78577 18.2636,-30.27085 31.8349,-34.86855 13.5713,-4.5977 28.0106,-4.92806 40.4419,0.49535 12.4313,5.42341 15.8019,5.02812 25.3452,19.16983 12.163,18.88804 5.3835,54.36578 17.9069,92.26912 4.3035,23.60268 8.8593,52.70647 8.9086,79.5688 0.049,26.86232 -6.0339,75.67519 -14.0682,92.05048 -25.7364,24.37403 -119.0182,11.594 -121.3755,-2.20927 z"
     style="fill:#cccccc;stroke-width:0.44172132;filter:url(#filter879)"
     transform="matrix(2.3214291,0,0,2.2077395,-2805.2071,-354.01017)" />
  <path
     style="fill:#b3b3b3;stroke-width:0.50228608;filter:url(#filter895)"
     d="m 484.62794,443.47782 c -3.0945,-23.34634 -9.6001,-61.8456 -11.2433,-90.37146 -1.6431,-28.52587 3.6933,-53.6874 11.1499,-79.25456 7.4567,-25.56716 5.3956,-57.06397 11.0996,-76.84974 5.7039,-19.78577 18.2636,-30.27085 31.8349,-34.86855 13.5713,-4.5977 28.0106,-4.92806 40.4419,0.49535 12.4313,5.42341 15.8019,5.02812 25.3452,19.16983 12.163,18.88804 5.3835,54.36578 17.9069,92.26912 4.3035,23.60268 8.8593,52.70647 8.9086,79.5688 0.049,26.86232 -6.0339,75.67519 -14.0682,92.05048 -25.7364,24.37403 -119.0182,11.594 -121.3755,-2.20927 z"
     id="path837"
     inkscape:connector-curvature="0"
     sodipodi:nodetypes="czzzzzcczcc"
     transform="matrix(2.031413,0,0,1.9511895,-710.02892,-196.9501)" />
  <path
     style="fill:#999999;stroke-width:0.99999994"
     d="m 295.56571,635.31241 c -5.40945,-39.20062 -16.78211,-103.84437 -19.65453,-151.7419 -2.87242,-47.89752 6.45624,-90.14602 19.49161,-133.07561 13.03517,-42.92958 9.43206,-95.8156 19.40325,-129.0377 9.97119,-33.2221 31.92711,-50.82751 55.65137,-58.54747 23.72447,-7.71996 48.96619,-8.27466 70.69764,0.83173 21.73145,9.10642 27.62376,8.44268 44.30674,32.1879 21.2624,31.71473 9.41093,91.28509 31.30347,154.92825 7.52313,39.63104 15.48708,88.49895 15.57342,133.60325 0.0853,45.10428 -10.54811,127.06552 -24.5931,154.56112 -44.99052,40.92622 -208.05894,19.46739 -212.17987,-3.70957 z"
     id="path835"
     inkscape:connector-curvature="0"
     sodipodi:nodetypes="czzzzzcczcc" />
  <path
     style="fill:#666666;stroke-width:0.99999994"
     d="m 310.18226,618.0382 c -4.88351,-35.38913 -15.15048,-93.74753 -17.74358,-136.98794 -2.59309,-43.24041 5.82853,-81.38107 17.59631,-120.13657 11.76777,-38.75552 8.51507,-86.49939 17.51667,-116.49128 9.0018,-29.99191 28.8229,-45.88552 50.2405,-52.85488 21.41759,-6.96933 44.20517,-7.47011 63.82354,0.75088 19.61878,8.22099 24.93803,7.62177 39.99873,29.05825 19.19522,28.63109 8.49597,82.40936 28.25979,139.86446 6.79183,35.77769 13.98141,79.89415 14.05921,120.61291 0.0772,40.71877 -9.52225,114.71086 -22.20172,139.53306 -40.61607,36.94692 -187.82932,17.57454 -191.54945,-3.34889 z"
     id="path833"
     inkscape:connector-curvature="0"
     sodipodi:nodetypes="czzzzzcczcc" />
  <path
     style="fill:#333333;stroke-width:0.99999994"
     d="m 330.07693,602.88444 c -4.43275,-32.12214 -13.75165,-85.09309 -16.10545,-124.34168 -2.3538,-39.24862 5.29041,-73.86825 15.97178,-109.04599 10.68157,-35.17774 7.72912,-78.51405 15.89967,-105.7372 8.17074,-27.22315 26.16195,-41.64953 45.60237,-47.97548 19.44042,-6.32597 40.12427,-6.7805 57.93164,0.68155 17.80757,7.46203 22.63583,6.91816 36.30622,26.37567 17.42302,25.98798 7.71165,74.80162 25.65106,126.95267 6.16473,32.47481 12.69064,72.51859 12.76113,109.47833 0.0711,36.95975 -8.64305,104.12115 -20.15222,126.65185 -36.86649,33.53611 -170.48939,15.95212 -173.8662,-3.03972 z"
     id="path831"
     inkscape:connector-curvature="0"
     sodipodi:nodetypes="czzzzzcczcc" />
  <path
     style="fill:#1a1a1a;stroke-width:0.99999994"
     d="m 347.82438,578.77946 c -3.90681,-28.31063 -12.12022,-74.99623 -14.1947,-109.58772 -2.07427,-34.59151 4.66271,-65.10329 14.07668,-96.10695 9.41418,-31.00368 6.81194,-69.19784 14.0133,-93.19078 7.20115,-23.99296 23.05755,-36.70754 40.1913,-42.28288 17.13375,-5.57533 35.36324,-5.97595 51.05774,0.60067 15.69429,6.57664 19.94969,6.09729 31.998,23.24604 15.35586,22.90433 6.7967,65.92591 22.60739,111.88888 5.43322,28.62147 11.18476,63.91378 11.24712,96.48801 0.0609,32.57424 -7.61779,91.7665 -17.76105,111.62377 -32.49204,29.55683 -150.25976,14.0593 -153.23578,-2.67904 z"
     id="path829"
     inkscape:connector-curvature="0"
     sodipodi:nodetypes="czzzzzcczcc" />
  <path
     style="fill:#000000;stroke-width:0.99999988"
     d="m 359.7929,560.59254 c -3.37035,-24.42178 -10.45513,-64.69452 -12.24494,-94.53443 -1.78959,-29.8399 4.02228,-56.1605 12.14305,-82.9054 8.12099,-26.74491 5.8762,-59.69262 12.08837,-80.38983 6.21195,-20.69718 19.89031,-31.66527 34.67031,-36.47474 14.78044,-4.80952 30.50573,-5.1551 44.04444,0.51815 13.5387,5.67324 17.20922,5.25973 27.60287,20.05289 13.24644,19.7581 5.86304,56.87013 19.50208,96.51948 4.68652,24.68995 9.64818,55.13441 9.70197,83.23413 0.0526,28.09974 -6.5714,79.16116 -15.32148,96.2908 -28.02886,25.4968 -129.61934,12.12807 -132.18667,-2.31105 z"
     id="path827"
     inkscape:connector-curvature="0"
     sodipodi:nodetypes="czzzzzcczcc" />
</svg>
